<svg width="130" height="50" viewBox="0 0 130 50" fill="none" xmlns="http://www.w3.org/2000/svg">
<path d="M109 25C109 38.8071 97.8071 50 84 50C70.1929 50 59 38.8071 59 25C59 11.1929 70.1929 0 84 0C97.8071 0 109 11.1929 109 25Z" fill="#13142E"/>
<path d="M130 25C130 38.8071 118.807 50 105 50C91.1929 50 80 38.8071 80 25C80 11.1929 91.1929 0 105 0C118.807 0 130 11.1929 130 25Z" fill="#EC8F03" fill-opacity="0.61"/>
<path d="M76.5309 32.1801C75.5043 32.1801 74.5709 31.9468 73.7309 31.4801C72.9043 31.0134 72.2509 30.3534 71.7709 29.5001C71.3043 28.6334 71.0709 27.6334 71.0709 26.5001C71.0709 25.3801 71.3109 24.3934 71.7909 23.5401C72.2843 22.6734 72.9509 22.0134 73.7909 21.5601C74.6309 21.0934 75.5709 20.8601 76.6109 20.8601C77.6509 20.8601 78.5909 21.0934 79.4309 21.5601C80.2709 22.0134 80.9309 22.6668 81.4109 23.5201C81.9043 24.3734 82.1509 25.3668 82.1509 26.5001C82.1509 27.6334 81.8976 28.6334 81.3909 29.5001C80.8976 30.3534 80.2243 31.0134 79.3709 31.4801C78.5176 31.9468 77.5709 32.1801 76.5309 32.1801ZM76.5309 30.5801C77.1843 30.5801 77.7976 30.4268 78.3709 30.1201C78.9443 29.8134 79.4043 29.3534 79.7509 28.7401C80.1109 28.1268 80.2909 27.3801 80.2909 26.5001C80.2909 25.6201 80.1176 24.8734 79.7709 24.2601C79.4243 23.6468 78.9709 23.1934 78.4109 22.9001C77.8509 22.5934 77.2443 22.4401 76.5909 22.4401C75.9243 22.4401 75.3109 22.5934 74.7509 22.9001C74.2043 23.1934 73.7643 23.6468 73.4309 24.2601C73.0976 24.8734 72.9309 25.6201 72.9309 26.5001C72.9309 27.3934 73.0909 28.1468 73.4109 28.7601C73.7443 29.3734 74.1843 29.8334 74.7309 30.1401C75.2776 30.4334 75.8776 30.5801 76.5309 30.5801Z" fill="#192964"/>
<path d="M58.9225 26.5001C58.9225 25.3668 59.1492 24.3801 59.6025 23.5401C60.0558 22.6868 60.6825 22.0268 61.4825 21.5601C62.2958 21.0934 63.2225 20.8601 64.2625 20.8601C65.6091 20.8601 66.7158 21.1868 67.5825 21.8401C68.4625 22.4934 69.0425 23.4001 69.3225 24.5601H67.3625C67.1758 23.8934 66.8091 23.3668 66.2625 22.9801C65.7291 22.5934 65.0625 22.4001 64.2625 22.4001C63.2225 22.4001 62.3825 22.7601 61.7425 23.4801C61.1025 24.1868 60.7825 25.1934 60.7825 26.5001C60.7825 27.8201 61.1025 28.8401 61.7425 29.5601C62.3825 30.2801 63.2225 30.6401 64.2625 30.6401C65.0625 30.6401 65.7291 30.4534 66.2625 30.0801C66.7958 29.7068 67.1625 29.1734 67.3625 28.4801H69.3225C69.0292 29.6001 68.4425 30.5001 67.5625 31.1801C66.6825 31.8468 65.5825 32.1801 64.2625 32.1801C63.2225 32.1801 62.2958 31.9468 61.4825 31.4801C60.6825 31.0134 60.0558 30.3534 59.6025 29.5001C59.1492 28.6468 58.9225 27.6468 58.9225 26.5001Z" fill="#192964"/>
<path d="M54.5374 22.54V29C54.5374 29.5334 54.6507 29.9134 54.8774 30.14C55.104 30.3534 55.4974 30.46 56.0574 30.46H57.3974V32H55.7574C54.744 32 53.984 31.7667 53.4774 31.3C52.9707 30.8334 52.7174 30.0667 52.7174 29V22.54H51.2974V21.04H52.7174V18.28H54.5374V21.04H57.3974V22.54H54.5374Z" fill="#192964"/>
<path d="M45.7482 32.1801C44.9082 32.1801 44.1549 32.0401 43.4882 31.7601C42.8215 31.4668 42.2949 31.0668 41.9082 30.5601C41.5215 30.0401 41.3082 29.4468 41.2682 28.7801H43.1482C43.2015 29.3268 43.4549 29.7734 43.9082 30.1201C44.3749 30.4668 44.9815 30.6401 45.7282 30.6401C46.4215 30.6401 46.9682 30.4868 47.3682 30.1801C47.7682 29.8734 47.9682 29.4868 47.9682 29.0201C47.9682 28.5401 47.7549 28.1868 47.3282 27.9601C46.9015 27.7201 46.2415 27.4868 45.3482 27.2601C44.5349 27.0468 43.8682 26.8334 43.3482 26.6201C42.8415 26.3934 42.4015 26.0668 42.0282 25.6401C41.6682 25.2001 41.4882 24.6268 41.4882 23.9201C41.4882 23.3601 41.6549 22.8468 41.9882 22.3801C42.3215 21.9134 42.7949 21.5468 43.4082 21.2801C44.0215 21.0001 44.7215 20.8601 45.5082 20.8601C46.7215 20.8601 47.7015 21.1668 48.4482 21.7801C49.1949 22.3934 49.5949 23.2334 49.6482 24.3001H47.8282C47.7882 23.7268 47.5549 23.2668 47.1282 22.9201C46.7149 22.5734 46.1549 22.4001 45.4482 22.4001C44.7949 22.4001 44.2749 22.5401 43.8882 22.8201C43.5015 23.1001 43.3082 23.4668 43.3082 23.9201C43.3082 24.2801 43.4215 24.5801 43.6482 24.8201C43.8882 25.0468 44.1815 25.2334 44.5282 25.3801C44.8882 25.5134 45.3815 25.6668 46.0082 25.8401C46.7949 26.0534 47.4349 26.2668 47.9282 26.4801C48.4215 26.6801 48.8415 26.9868 49.1882 27.4001C49.5482 27.8134 49.7349 28.3534 49.7482 29.0201C49.7482 29.6201 49.5815 30.1601 49.2482 30.6401C48.9149 31.1201 48.4415 31.5001 47.8282 31.7801C47.2282 32.0468 46.5349 32.1801 45.7482 32.1801Z" fill="#192964"/>
<path d="M39.4658 26.1001C39.4658 26.4468 39.4458 26.8134 39.4058 27.2001H30.6458C30.7124 28.2801 31.0791 29.1268 31.7458 29.7401C32.4258 30.3401 33.2458 30.6401 34.2058 30.6401C34.9924 30.6401 35.6458 30.4601 36.1658 30.1001C36.6991 29.7268 37.0724 29.2334 37.2858 28.6201H39.2458C38.9524 29.6734 38.3658 30.5334 37.4858 31.2001C36.6058 31.8534 35.5124 32.1801 34.2058 32.1801C33.1658 32.1801 32.2324 31.9468 31.4058 31.4801C30.5924 31.0134 29.9524 30.3534 29.4858 29.5001C29.0191 28.6334 28.7858 27.6334 28.7858 26.5001C28.7858 25.3668 29.0124 24.3734 29.4658 23.5201C29.9191 22.6668 30.5524 22.0134 31.3658 21.5601C32.1924 21.0934 33.1391 20.8601 34.2058 20.8601C35.2458 20.8601 36.1658 21.0868 36.9658 21.5401C37.7658 21.9934 38.3791 22.6201 38.8058 23.4201C39.2458 24.2068 39.4658 25.1001 39.4658 26.1001ZM37.5858 25.7201C37.5858 25.0268 37.4324 24.4334 37.1258 23.9401C36.8191 23.4334 36.3991 23.0534 35.8658 22.8001C35.3458 22.5334 34.7658 22.4001 34.1258 22.4001C33.2058 22.4001 32.4191 22.6934 31.7658 23.2801C31.1258 23.8668 30.7591 24.6801 30.6658 25.7201H37.5858Z" fill="#192964"/>
<path d="M22.3348 30.32L25.7348 21.04H27.6748L23.3748 32H21.2548L16.9548 21.04H18.9148L22.3348 30.32Z" fill="#192964"/>
<path d="M10.8019 20.8401C12.1352 20.8401 13.2152 21.2468 14.0419 22.0601C14.8686 22.8601 15.2819 24.0201 15.2819 25.5401V32.0001H13.4819V25.8001C13.4819 24.7068 13.2086 23.8734 12.6619 23.3001C12.1152 22.7134 11.3686 22.4201 10.4219 22.4201C9.46191 22.4201 8.69525 22.7201 8.12191 23.3201C7.56191 23.9201 7.28191 24.7934 7.28191 25.9401V32.0001H5.46191V21.0401H7.28191V22.6001C7.64191 22.0401 8.12858 21.6068 8.74191 21.3001C9.36858 20.9934 10.0552 20.8401 10.8019 20.8401Z" fill="#192964"/>
<path d="M2.36004 18.0601V32.0001H0.540039V18.0601H2.36004Z" fill="#192964"/>
</svg>
